<svg xmlns="http://www.w3.org/2000/svg" xmlns:xlink="http://www.w3.org/1999/xlink" width="30" height="30" viewBox="0 0 30 30">
  <defs>
    <clipPath id="clip-path">
      <rect id="Rectangle_8035" data-name="Rectangle 8035" width="30" height="30" transform="translate(-0.288 -0.145)" fill="#2dbf64" stroke="#707070" stroke-width="1"/>
    </clipPath>
  </defs>
  <g id="Mask_Group_415" data-name="Mask Group 415" transform="translate(0.288 0.145)" clip-path="url(#clip-path)">
    <path id="Path_28854" data-name="Path 28854" d="M31.995,23a2,2,0,0,0-1.52-1.935A6.5,6.5,0,0,0,24,15H19a6.437,6.437,0,0,0-1.36.145l.32-3.224A1.5,1.5,0,0,0,19,10.5v-1A1.5,1.5,0,0,0,17.5,8H13.718l1.125-3H17a.5.5,0,0,0,0-1H14.5a.5.5,0,0,0-.47.325L12.648,8H3.5A1.5,1.5,0,0,0,2,9.5v1a1.5,1.5,0,0,0,1.04,1.42L4.825,29.746A2.486,2.486,0,0,0,7.314,32h6.379a2.557,2.557,0,0,0,1.055-.235A3.432,3.432,0,0,0,16,32H27a3.5,3.5,0,0,0,3.5-3.5v-.57a2.042,2.042,0,0,0,.915-.515,1.989,1.989,0,0,0-.1-2.915A1.983,1.983,0,0,0,32,23ZM19,16h5a5.509,5.509,0,0,1,5.479,5H13.523A5.509,5.509,0,0,1,19,16ZM3,10.5v-1A.5.5,0,0,1,3.5,9h14a.5.5,0,0,1,.5.5v1a.5.5,0,0,1-.5.5H3.5A.5.5,0,0,1,3,10.5ZM7.309,31a1.49,1.49,0,0,1-1.49-1.35L4.055,12H16.948L16.6,15.463a6.507,6.507,0,0,0-4.079,5.6,1.985,1.985,0,0,0-.83,3.434c-.035.03-.07.055-.1.085a2,2,0,0,0,.915,3.344v.57A3.5,3.5,0,0,0,13.568,31H7.314ZM20.7,26.9l-1.2.96L15.923,25h2.4L20.7,26.9ZM19.922,25h7.149L23.5,27.856,19.922,25Zm-3.1,2H13a1,1,0,0,1-1-1,1.007,1.007,0,0,1,1-1h1.325ZM29.5,28.5A2.5,2.5,0,0,1,27,31H16a2.4,2.4,0,0,1-1.06-.24A2.51,2.51,0,0,1,13.5,28.5V28h4.574l1.115.89a.492.492,0,0,0,.62,0l1.69-1.35,1.69,1.35a.492.492,0,0,0,.62,0L24.921,28H29.5ZM30.7,26.7A.991.991,0,0,1,30,27H26.171l2.5-2H30a1,1,0,0,1,1,1A.991.991,0,0,1,30.7,26.7ZM30,24H13a1,1,0,0,1,0-2H30a1,1,0,1,1,0,2Z" transform="translate(-2.288 -3.145)" fill="#ea6d39"/>
  </g>
</svg>
